<?xml version="1.0" standalone="no"?>
<!DOCTYPE svg PUBLIC "-//W3C//DTD SVG 20010904//EN"
 "http://www.w3.org/TR/2001/REC-SVG-20010904/DTD/svg10.dtd">
<svg version="1.0" xmlns="http://www.w3.org/2000/svg"
 width="150.000000pt" height="150.000000pt" viewBox="0 0 150.000000 150.000000"
 preserveAspectRatio="xMidYMid meet">
<metadata>
Created by potrace 1.14, written by Peter Selinger 2001-2017
</metadata>
<g transform="translate(0.000000,150.000000) scale(0.100000,-0.100000)"
fill="#000000" stroke="none">
<path d="M235 1489 c-53 -12 -113 -62 -136 -113 -17 -38 -19 -78 -19 -626 0
-548 2 -588 19 -626 25 -54 83 -101 143 -114 66 -14 950 -14 1016 1 63 13 125
65 147 122 14 37 16 100 13 532 l-3 490 -37 78 c-66 138 -192 234 -338 257
-80 12 -749 11 -805 -1z m665 -324 l0 -185 185 0 184 0 4 58 c2 31 4 -144 5
-389 2 -438 2 -447 -19 -473 l-20 -26 -489 0 -489 0 -20 26 c-21 26 -21 35
-21 574 0 539 0 548 21 574 l20 26 320 0 319 0 0 -185z m190 164 c24 -11 59
-31 76 -44 35 -27 89 -106 99 -145 l6 -25 -111 3 -110 3 0 109 0 109 -27 4
c-27 4 -27 4 -3 5 14 1 45 -8 70 -19z"/>
<path d="M380 975 l0 -75 145 0 145 0 0 75 0 75 -145 0 -145 0 0 -75z"/>
<path d="M380 675 l0 -75 370 0 370 0 0 75 0 75 -370 0 -370 0 0 -75z"/>
<path d="M380 375 l0 -75 370 0 370 0 0 75 0 75 -370 0 -370 0 0 -75z"/>
</g>
</svg>
