<?xml version="1.0" encoding="UTF-8" ?>
<!DOCTYPE svg PUBLIC "-//W3C//DTD SVG 1.1//EN" "http://www.w3.org/Graphics/SVG/1.1/DTD/svg11.dtd">
<svg width="683pt" height="537pt" viewBox="0 0 683 537" version="1.1" xmlns="http://www.w3.org/2000/svg">
<g id="#000000ff">
<path fill="#000000" opacity="1.00" d=" M 222.30 0.00 L 222.72 0.00 C 224.30 0.96 226.22 0.81 227.99 0.85 C 234.33 0.76 240.67 0.98 247.00 0.42 C 270.17 0.38 293.34 0.39 316.52 0.42 C 316.47 74.16 316.65 147.91 316.43 221.65 C 390.18 221.96 463.94 221.72 537.70 221.77 C 537.67 252.93 537.97 284.11 537.55 315.26 C 463.86 315.14 390.15 315.30 316.48 315.19 C 316.52 389.12 316.61 463.06 316.44 537.00 L 222.72 537.00 C 222.49 463.05 222.83 389.09 222.55 315.14 C 151.37 315.38 80.19 315.10 9.01 315.26 C 6.42 315.35 3.81 315.26 1.27 314.66 C 1.67 283.70 1.28 252.74 1.46 221.78 C 48.97 221.80 96.48 221.78 143.99 221.79 C 170.26 221.66 196.53 222.04 222.79 221.60 C 222.47 203.42 222.74 185.24 222.65 167.07 C 222.66 113.04 222.63 59.01 222.67 4.98 C 222.64 3.31 222.51 1.65 222.30 0.00 Z" />
<path fill="#000000" opacity="1.00" d=" M 582.55 148.64 C 593.48 140.23 607.25 135.83 621.00 135.78 C 634.87 136.06 648.69 140.75 659.53 149.48 C 673.22 160.23 681.90 176.96 683.00 194.32 L 683.00 201.68 C 682.22 222.33 670.27 242.07 652.41 252.42 C 639.18 260.46 622.97 262.67 607.86 259.86 C 593.83 256.99 580.85 249.19 571.87 238.02 C 560.83 224.51 555.77 206.19 558.62 188.94 C 560.96 173.08 569.74 158.28 582.55 148.64 Z" />
<path fill="#000000" opacity="1.00" d=" M 582.52 286.65 C 593.72 278.05 607.90 273.60 621.99 273.80 C 635.75 274.29 649.38 279.11 660.04 287.89 C 673.45 298.65 681.91 315.18 683.00 332.32 L 683.00 339.75 C 682.19 360.37 670.25 380.08 652.41 390.42 C 639.18 398.46 622.97 400.67 607.86 397.86 C 593.85 395.00 580.87 387.20 571.90 376.05 C 560.85 362.54 555.77 344.21 558.61 326.96 C 560.95 311.10 569.72 296.30 582.52 286.65 Z" />
<path fill="#000000" opacity="1.00" d=" M 582.49 424.68 C 593.70 416.06 607.89 411.60 621.99 411.80 C 635.73 412.29 649.35 417.10 660.01 425.86 C 673.42 436.61 681.89 453.14 683.00 470.28 L 683.00 477.72 C 682.27 495.20 673.67 512.16 660.04 523.12 C 650.31 531.11 638.11 535.82 625.61 537.00 L 617.30 537.00 C 600.05 536.29 583.31 527.92 572.35 514.60 C 560.98 501.03 555.73 482.43 558.62 464.94 C 560.95 449.10 569.71 434.32 582.49 424.68 Z" />
</g>
</svg>
