<?xml version="1.0" encoding="UTF-8" ?>
<!DOCTYPE svg PUBLIC "-//W3C//DTD SVG 1.1//EN" "http://www.w3.org/Graphics/SVG/1.1/DTD/svg11.dtd">
<svg width="621pt" height="608pt" viewBox="0 0 621 608" version="1.1" xmlns="http://www.w3.org/2000/svg">
<g id="#000000ff">
<path fill="#000000" opacity="1.00" d=" M 183.42 0.00 L 496.00 0.00 C 495.99 25.00 496.01 49.99 495.99 74.99 C 472.50 75.02 449.01 74.98 425.51 75.01 C 425.48 252.67 425.51 430.34 425.50 608.00 L 347.00 608.00 C 346.99 430.34 347.01 252.67 346.99 75.01 C 325.66 74.99 304.34 74.99 283.01 75.01 C 282.99 252.67 283.01 430.34 283.00 608.00 L 204.75 608.00 C 204.75 526.01 204.75 444.01 204.75 362.02 C 197.50 361.91 190.25 362.19 183.00 361.77 C 145.74 360.92 108.41 349.77 78.00 327.92 C 51.99 309.06 29.29 284.63 15.87 255.17 C 2.56 226.53 -1.51 194.20 1.24 162.91 C 3.89 132.24 15.26 102.40 33.81 77.82 C 50.77 55.50 72.24 36.46 96.79 22.88 C 123.21 8.21 153.33 1.05 183.42 0.00 M 120.22 99.28 C 109.05 109.23 98.83 120.58 91.89 133.95 C 81.09 154.00 78.20 177.79 82.14 200.09 C 85.72 221.32 96.85 240.86 112.19 255.81 C 126.21 270.43 144.76 280.64 164.65 284.56 C 177.82 287.41 191.36 287.05 204.75 286.98 C 204.75 216.33 204.75 145.67 204.75 75.02 C 194.86 75.13 184.92 74.55 175.07 75.73 C 154.97 77.85 135.50 85.99 120.22 99.28 Z" />
<path fill="#000000" opacity="1.00" d=" M 518.41 221.36 C 529.63 211.84 544.34 206.85 558.99 206.76 C 573.06 207.09 587.10 211.87 598.00 220.86 C 611.69 231.83 620.31 248.86 621.00 266.39 L 621.00 274.18 C 619.49 295.81 605.99 316.11 586.45 325.58 C 574.30 331.81 560.14 333.23 546.77 331.04 C 530.75 328.04 516.05 318.53 506.89 305.03 C 498.89 293.43 494.93 279.03 496.02 264.98 C 497.20 248.22 505.38 232.02 518.41 221.36 Z" />
<path fill="#000000" opacity="1.00" d=" M 519.00 358.87 C 530.14 349.67 544.57 344.86 558.96 344.76 C 573.06 345.08 587.13 349.87 598.04 358.90 C 611.72 369.88 620.33 386.91 621.00 404.44 L 621.00 412.19 C 619.48 433.81 605.99 454.11 586.46 463.57 C 574.33 469.80 560.19 471.22 546.84 469.05 C 530.80 466.07 516.08 456.56 506.90 443.05 C 497.96 430.07 494.05 413.60 496.61 398.02 C 498.84 382.79 506.99 368.50 519.00 358.87 Z" />
<path fill="#000000" opacity="1.00" d=" M 518.44 497.33 C 528.64 488.72 541.70 483.77 554.98 482.91 C 570.40 482.08 586.13 487.09 598.07 496.92 C 611.72 507.89 620.31 524.89 621.00 542.39 L 621.00 550.16 C 619.75 566.36 612.10 582.04 599.75 592.66 C 589.26 601.89 575.58 607.43 561.61 608.00 L 555.44 608.00 C 537.90 607.33 520.86 598.72 509.89 585.03 C 499.90 572.84 494.81 556.70 496.02 541.01 C 497.19 524.22 505.39 508.00 518.44 497.33 Z" />
</g>
</svg>
