<?xml version="1.0" encoding="UTF-8" ?>
<!DOCTYPE svg PUBLIC "-//W3C//DTD SVG 1.1//EN" "http://www.w3.org/Graphics/SVG/1.1/DTD/svg11.dtd">
<svg width="720pt" height="645pt" viewBox="0 0 720 645" version="1.1" xmlns="http://www.w3.org/2000/svg">
<g id="#000000ff">
<path fill="#000000" opacity="1.00" d=" M 243.68 0.49 C 274.95 0.49 306.22 0.51 337.49 0.48 C 418.63 215.28 499.49 430.19 580.62 645.00 L 488.48 645.00 C 467.65 586.87 447.11 528.64 426.33 470.50 C 336.14 470.51 245.94 470.49 155.74 470.51 C 134.70 528.66 113.82 586.87 92.71 645.00 L 0.58 645.00 C 81.69 430.20 162.61 215.31 243.68 0.49 M 288.90 102.51 C 253.85 199.25 218.80 295.99 183.78 392.74 C 255.00 392.77 326.21 392.73 397.43 392.75 C 362.40 296.00 327.36 199.25 292.30 102.50 C 291.45 102.50 289.75 102.51 288.90 102.51 Z" />
<path fill="#000000" opacity="1.00" d=" M 618.46 257.48 C 630.09 248.14 645.15 243.33 660.02 243.85 C 673.43 244.52 686.66 249.34 697.06 257.90 C 710.52 268.72 719.02 285.37 720.00 302.60 L 720.00 309.50 C 719.33 328.24 709.51 346.35 694.27 357.24 C 683.80 364.80 670.94 369.19 657.99 368.95 C 639.00 369.55 620.17 360.39 608.47 345.52 C 597.69 332.03 592.78 313.91 595.64 296.86 C 597.92 281.49 606.26 267.10 618.46 257.48 Z" />
<path fill="#000000" opacity="1.00" d=" M 618.54 395.42 C 630.16 386.12 645.19 381.33 660.03 381.85 C 673.42 382.53 686.62 387.33 697.00 395.85 C 710.49 406.67 719.01 423.34 720.00 440.59 L 720.00 447.49 C 719.30 468.45 707.04 488.47 688.81 498.78 C 675.69 506.54 659.75 508.61 644.87 505.86 C 630.85 503.00 617.86 495.20 608.89 484.04 C 597.81 470.49 592.74 452.10 595.64 434.82 C 597.94 419.42 606.31 405.04 618.54 395.42 Z" />
<path fill="#000000" opacity="1.00" d=" M 618.51 533.45 C 630.13 524.12 645.19 519.33 660.05 519.85 C 673.43 520.53 686.63 525.33 697.01 533.86 C 710.50 544.68 719.02 561.36 720.00 578.62 L 720.00 585.47 C 719.37 603.05 710.73 620.11 697.04 631.12 C 687.20 639.19 674.83 643.97 662.17 645.00 L 653.06 645.00 C 636.51 643.83 620.53 635.88 609.83 623.18 C 598.12 609.53 592.66 590.63 595.64 572.87 C 597.92 557.47 606.28 543.07 618.51 533.45 Z" />
</g>
</svg>
