<?xml version="1.0" encoding="UTF-8" ?>
<!DOCTYPE svg PUBLIC "-//W3C//DTD SVG 1.1//EN" "http://www.w3.org/Graphics/SVG/1.1/DTD/svg11.dtd">
<svg width="300pt" height="218pt" viewBox="0 0 300 218" version="1.1" xmlns="http://www.w3.org/2000/svg">
<g id="#0d62f9ff">
<path fill="#0d62f9" opacity="1.00" d=" M 109.01 2.15 C 127.35 1.77 145.69 1.14 164.03 1.02 C 167.58 1.10 171.47 0.42 174.65 2.40 C 180.17 5.39 183.00 11.86 182.80 17.97 C 182.82 30.23 183.23 42.48 183.68 54.74 C 184.93 54.64 186.18 54.57 187.44 54.53 C 181.90 57.98 174.63 56.77 169.15 60.20 C 164.88 66.10 168.63 73.73 167.75 80.37 C 166.47 81.99 166.63 84.04 166.74 85.97 C 165.96 86.07 164.41 86.26 163.63 86.36 C 163.57 85.35 163.50 84.33 163.44 83.32 C 163.34 81.51 163.25 79.70 163.19 77.90 C 163.69 71.74 160.06 64.02 165.28 59.13 C 169.50 57.34 174.21 57.10 178.62 55.91 C 178.25 45.11 178.13 34.31 178.01 23.50 C 168.04 23.82 158.06 23.85 148.09 23.99 C 132.63 24.33 117.18 25.08 101.72 25.20 C 101.85 39.81 102.23 54.41 102.86 69.01 C 103.44 105.30 104.73 141.57 105.33 177.86 C 130.75 177.12 156.17 177.10 181.58 176.06 C 181.06 161.71 181.23 147.35 180.58 133.01 C 180.31 125.71 179.94 118.41 179.99 111.10 C 181.59 112.57 183.27 113.95 185.06 115.19 C 186.02 136.45 185.73 157.75 186.83 179.01 C 187.21 184.96 187.39 191.57 183.39 196.47 C 180.95 199.67 177.11 201.75 173.06 201.79 C 152.45 202.30 131.84 202.84 111.22 203.08 C 108.17 201.34 105.37 199.19 103.04 196.55 C 105.60 192.56 105.31 186.21 100.56 184.02 C 100.46 181.42 100.43 178.82 100.48 176.22 C 104.64 173.11 104.33 166.03 100.06 163.15 C 99.99 149.09 98.93 135.05 98.94 120.98 C 98.10 86.67 97.28 52.35 96.50 18.04 C 96.17 10.64 101.42 3.11 109.01 2.15 M 142.25 7.21 C 140.95 8.20 142.32 10.86 143.82 9.69 C 145.23 8.72 143.76 5.95 142.25 7.21 M 129.26 13.27 C 127.53 13.97 128.04 16.28 129.66 16.74 C 131.77 16.38 131.46 13.01 129.26 13.27 M 135.93 14.03 C 135.96 14.49 136.04 15.41 136.08 15.87 C 140.75 15.55 145.49 15.92 150.13 15.27 C 150.40 14.93 150.95 14.24 151.22 13.90 C 146.13 13.48 141.02 13.95 135.93 14.03 M 143.51 180.54 C 137.38 181.81 135.83 190.69 140.71 194.36 C 144.70 198.14 151.52 194.20 151.31 189.05 C 152.14 184.63 148.11 179.72 143.51 180.54 Z" />
</g>
<g id="#15289eff">
<path fill="#15289e" opacity="1.00" d=" M 97.35 4.29 C 100.76 1.93 105.09 2.45 109.01 2.15 C 101.42 3.11 96.17 10.64 96.50 18.04 C 97.28 52.35 98.10 86.67 98.94 120.98 C 98.93 135.05 99.99 149.09 100.06 163.15 C 98.71 162.10 96.95 161.44 96.02 159.94 C 95.53 157.78 95.82 155.54 95.49 153.37 C 94.52 150.96 92.72 148.77 93.06 146.01 C 92.94 128.11 92.38 110.22 91.82 92.33 C 91.29 68.55 91.00 44.76 89.99 21.00 C 89.48 14.71 91.74 7.71 97.35 4.29 Z" />
<path fill="#15289e" opacity="1.00" d=" M 142.25 7.21 C 143.76 5.95 145.23 8.72 143.82 9.69 C 142.32 10.86 140.95 8.20 142.25 7.21 Z" />
<path fill="#15289e" opacity="1.00" d=" M 129.26 13.27 C 131.46 13.01 131.77 16.38 129.66 16.74 C 128.04 16.28 127.53 13.97 129.26 13.27 Z" />
<path fill="#15289e" opacity="1.00" d=" M 135.93 14.03 C 141.02 13.95 146.13 13.48 151.22 13.90 C 150.95 14.24 150.40 14.93 150.13 15.27 C 145.49 15.92 140.75 15.55 136.08 15.87 C 136.04 15.41 135.96 14.49 135.93 14.03 Z" />
<path fill="#15289e" opacity="1.00" d=" M 97.00 180.01 C 97.86 178.51 99.28 177.45 100.48 176.22 C 100.43 178.82 100.46 181.42 100.56 184.02 C 99.06 182.97 96.29 182.42 97.00 180.01 Z" />
<path fill="#15289e" opacity="1.00" d=" M 99.69 200.04 C 100.87 198.94 101.98 197.77 103.04 196.55 C 105.37 199.19 108.17 201.34 111.22 203.08 C 107.09 203.57 102.96 202.68 99.69 200.04 Z" />
</g>
<g id="#afc6f5ff">
<path fill="#afc6f5" opacity="1.00" d=" M 228.75 32.84 C 231.55 27.56 238.02 24.44 243.85 26.27 C 247.66 27.32 251.01 30.29 252.23 34.09 C 257.13 30.91 264.26 33.32 266.14 38.88 C 249.93 38.80 233.72 38.86 217.52 38.85 C 219.25 34.35 224.04 31.84 228.75 32.84 Z" />
<path fill="#afc6f5" opacity="1.00" d=" M 53.83 36.79 C 60.02 34.42 67.27 38.33 69.69 44.30 C 74.72 41.44 81.46 43.76 83.53 49.19 C 67.29 49.23 51.04 49.23 34.80 49.19 C 36.66 44.83 41.35 42.21 46.05 43.20 C 47.94 40.36 50.43 37.72 53.83 36.79 Z" />
<path fill="#afc6f5" opacity="1.00" d=" M 108.22 79.09 C 126.55 78.94 144.85 77.86 163.19 77.90 C 163.25 79.70 163.34 81.51 163.44 83.32 C 145.10 84.13 126.73 83.78 108.39 84.57 C 108.33 82.74 108.27 80.91 108.22 79.09 Z" />
<path fill="#afc6f5" opacity="1.00" d=" M 108.58 89.01 C 126.33 88.73 144.07 88.17 161.83 87.99 C 162.71 89.81 163.57 91.69 165.03 93.13 C 164.75 93.13 164.20 93.14 163.92 93.15 C 145.56 94.02 127.17 94.08 108.80 94.58 C 108.72 92.72 108.65 90.86 108.58 89.01 Z" />
<path fill="#afc6f5" opacity="1.00" d=" M 109.08 102.65 C 129.76 101.88 150.47 102.12 171.15 101.24 C 172.43 102.80 173.72 104.35 175.08 105.86 C 175.34 124.27 175.97 142.67 176.44 161.07 C 154.44 162.07 132.42 161.94 110.41 162.65 C 109.95 142.65 109.12 122.65 109.08 102.65 Z" />
</g>
<g id="#f59c8dff">
<path fill="#f59c8d" opacity="1.00" d=" M 110.42 33.50 C 118.50 32.37 126.87 33.16 135.07 32.77 C 138.07 32.19 140.60 35.04 140.65 37.87 C 140.90 45.61 140.91 53.36 141.01 61.10 C 141.26 63.36 139.50 66.04 137.11 66.05 C 129.39 66.28 121.67 66.51 113.95 66.82 C 111.05 67.29 107.92 64.93 107.89 61.93 C 107.79 54.26 107.56 46.59 107.34 38.93 C 107.20 36.66 108.28 34.42 110.42 33.50 Z" />
<path fill="#f59c8d" opacity="1.00" d=" M 196.38 75.10 C 198.32 78.81 200.85 82.17 203.33 85.53 C 207.16 90.92 213.72 93.27 219.82 95.03 C 219.76 95.48 219.63 96.39 219.56 96.84 C 221.40 96.84 223.25 96.84 225.09 96.83 C 221.57 104.64 225.35 113.70 230.79 119.61 C 230.90 123.81 230.97 128.01 230.65 132.20 C 230.19 132.99 229.93 133.86 229.85 134.79 C 227.28 136.58 224.02 136.19 221.07 136.12 C 215.80 135.69 210.52 135.04 205.38 133.81 C 205.34 128.19 205.07 122.57 205.08 116.95 C 198.37 117.06 191.61 116.75 185.06 115.19 C 183.27 113.95 181.59 112.57 179.99 111.10 C 178.29 109.41 176.69 107.63 175.08 105.86 C 173.72 104.35 172.43 102.80 171.15 101.24 C 170.10 99.98 168.98 98.77 167.72 97.73 C 168.53 96.83 169.34 95.93 170.15 95.03 C 170.75 94.37 171.36 93.71 171.98 93.06 C 172.96 92.03 173.95 91.01 174.94 89.99 C 177.91 92.68 180.94 95.31 184.15 97.73 C 186.65 99.66 189.13 101.80 192.19 102.80 C 194.76 102.76 197.23 101.93 199.73 101.37 C 197.65 98.96 195.75 96.42 194.01 93.77 C 199.27 88.94 196.33 81.27 196.38 75.10 Z" />
</g>
<g id="#3878ffff">
<path fill="#3878ff" opacity="1.00" d=" M 187.44 54.53 C 189.99 54.85 193.43 54.56 194.66 57.38 C 196.72 63.03 195.75 69.22 196.38 75.10 C 196.33 81.27 199.27 88.94 194.01 93.77 C 190.89 95.23 185.53 93.95 184.15 97.73 C 180.94 95.31 177.91 92.68 174.94 89.99 C 173.95 91.01 172.96 92.03 171.98 93.06 C 169.77 89.12 169.22 84.59 167.75 80.37 C 168.63 73.73 164.88 66.10 169.15 60.20 C 174.63 56.77 181.90 57.98 187.44 54.53 Z" />
<path fill="#3878ff" opacity="1.00" d=" M 229.85 134.79 C 229.93 133.86 230.19 132.99 230.65 132.20 C 230.58 134.98 229.85 137.66 229.22 140.35 C 223.66 147.50 220.10 155.98 216.15 164.08 C 209.92 176.59 207.98 190.90 200.40 202.79 C 199.71 203.76 199.00 204.72 198.29 205.67 C 194.67 205.05 191.06 204.36 187.45 203.66 C 193.37 180.36 198.81 156.94 205.38 133.81 C 210.52 135.04 215.80 135.69 221.07 136.12 C 224.02 136.19 227.28 136.58 229.85 134.79 Z" />
<path fill="#3878ff" opacity="1.00" d=" M 240.14 191.42 C 240.45 182.55 239.56 173.55 240.62 164.76 C 241.08 168.95 240.65 173.18 240.87 177.39 C 243.72 175.77 245.96 173.20 249.07 172.04 C 246.66 174.74 242.70 175.89 240.87 179.03 C 240.64 183.23 240.81 187.43 240.90 191.63 C 244.09 190.11 246.50 187.32 249.84 186.09 C 247.22 188.47 244.17 190.26 241.30 192.29 C 240.46 194.30 240.96 196.59 240.85 198.71 L 240.14 198.75 C 240.04 196.62 240.67 194.31 239.81 192.30 C 237.99 190.41 235.58 189.13 234.10 186.91 C 236.35 188.09 237.89 190.23 240.14 191.42 Z" />
</g>
<g id="#5fac95ff">
<path fill="#5fac95" opacity="1.00" d=" M 62.12 78.20 C 63.94 73.98 68.62 71.66 73.07 71.72 C 79.35 71.29 86.33 73.76 89.64 79.38 C 92.24 83.28 90.06 88.17 91.82 92.33 C 92.38 110.22 92.94 128.11 93.06 146.01 C 92.72 148.77 94.52 150.96 95.49 153.37 C 95.82 155.54 95.53 157.78 96.02 159.94 C 96.95 161.44 98.71 162.10 100.06 163.15 C 104.33 166.03 104.64 173.11 100.48 176.22 C 99.28 177.45 97.86 178.51 97.00 180.01 C 96.29 182.42 99.06 182.97 100.56 184.02 C 105.31 186.21 105.60 192.56 103.04 196.55 C 101.98 197.77 100.87 198.94 99.69 200.04 C 93.31 205.24 84.01 206.75 76.40 203.52 C 71.49 201.42 67.27 196.60 67.55 191.01 C 67.67 187.23 71.99 185.56 72.46 181.94 C 72.23 176.15 65.04 173.05 65.95 166.98 C 66.98 163.80 71.06 164.19 73.20 162.23 C 75.06 159.87 74.05 156.64 74.05 153.91 C 64.44 153.26 54.06 147.26 52.37 137.10 C 51.31 132.68 54.20 128.95 57.11 126.04 C 60.20 123.10 59.07 118.34 56.74 115.31 C 53.78 111.06 49.10 106.75 50.22 101.05 C 51.58 96.07 58.30 97.55 60.81 93.64 C 62.81 88.70 59.85 83.10 62.12 78.20 M 75.36 90.70 C 75.12 98.22 75.35 105.75 75.21 113.28 C 70.81 110.45 67.29 106.49 62.96 103.56 L 63.22 104.61 C 67.12 108.21 71.43 111.34 75.33 114.95 C 75.09 123.15 75.36 131.35 75.26 139.55 C 70.83 136.70 67.28 132.71 62.93 129.73 L 63.17 130.69 C 66.91 134.41 71.33 137.40 75.15 141.05 C 75.62 143.72 74.60 146.59 75.69 149.14 C 76.04 146.59 75.59 143.93 76.25 141.43 C 79.99 138.11 84.36 135.58 88.38 132.61 C 89.62 131.53 91.78 130.97 91.90 129.05 C 86.72 132.61 81.61 136.27 76.49 139.93 C 75.51 134.66 76.10 129.29 75.92 123.97 C 76.02 121.09 75.55 118.11 76.24 115.29 C 80.80 110.73 87.34 108.29 91.54 103.37 C 86.25 106.32 81.60 110.25 76.57 113.60 C 74.70 106.15 77.14 98.08 75.36 90.70 M 84.44 158.82 C 83.80 164.42 84.39 170.07 84.04 175.69 C 80.77 173.74 78.55 170.27 74.91 168.97 C 77.71 171.92 81.33 173.99 84.03 177.02 C 84.35 182.87 84.11 188.75 84.08 194.61 C 80.72 192.77 78.45 189.45 74.96 187.82 C 77.55 190.99 81.24 192.99 84.03 195.95 C 84.35 198.59 84.12 201.26 84.07 203.91 L 84.94 203.88 C 84.94 201.30 84.81 198.72 85.05 196.15 C 88.49 193.13 92.63 190.99 96.11 187.99 C 91.83 189.29 88.97 193.11 84.90 194.87 C 85.05 188.96 84.72 183.03 85.09 177.14 C 87.99 174.55 91.35 172.54 94.52 170.30 C 95.23 169.80 95.70 169.12 95.94 168.27 C 92.23 170.72 88.91 173.95 84.83 175.71 C 84.71 170.09 85.54 164.35 84.44 158.82 Z" />
<path fill="#5fac95" opacity="1.00" d=" M 234.10 156.20 C 237.61 152.82 243.77 153.73 247.16 156.87 C 249.55 158.86 248.87 162.16 249.00 164.88 C 251.59 167.04 255.66 168.98 254.98 173.05 C 255.32 176.72 251.10 178.04 249.90 181.03 C 250.61 182.67 252.56 183.10 253.86 184.16 C 256.51 186.15 256.69 190.19 254.78 192.76 C 250.05 199.71 239.62 201.78 232.48 197.41 C 233.98 187.60 229.74 178.14 228.50 168.52 C 229.93 167.76 232.05 167.43 232.54 165.61 C 233.13 162.51 231.52 158.70 234.10 156.20 M 240.14 191.42 C 237.89 190.23 236.35 188.09 234.10 186.91 C 235.58 189.13 237.99 190.41 239.81 192.30 C 240.67 194.31 240.04 196.62 240.14 198.75 L 240.85 198.71 C 240.96 196.59 240.46 194.30 241.30 192.29 C 244.17 190.26 247.22 188.47 249.84 186.09 C 246.50 187.32 244.09 190.11 240.90 191.63 C 240.81 187.43 240.64 183.23 240.87 179.03 C 242.70 175.89 246.66 174.74 249.07 172.04 C 245.96 173.20 243.72 175.77 240.87 177.39 C 240.65 173.18 241.08 168.95 240.62 164.76 C 239.56 173.55 240.45 182.55 240.14 191.42 Z" />
</g>
<g id="#0553ddff">
<path fill="#0553dd" opacity="1.00" d=" M 217.47 73.79 C 222.13 73.77 226.81 70.30 231.39 72.66 C 235.38 74.36 236.94 78.79 237.10 82.82 C 238.40 83.90 239.72 84.97 241.04 86.03 C 241.08 86.74 241.16 88.14 241.20 88.85 C 242.98 90.30 245.18 91.63 245.91 93.96 C 246.53 95.94 245.67 97.91 245.03 99.76 C 249.69 102.14 250.65 108.49 247.63 112.54 C 245.32 115.17 245.76 119.50 242.43 121.33 C 238.74 123.83 233.95 122.21 230.79 119.61 C 225.35 113.70 221.57 104.64 225.09 96.83 C 225.23 95.01 224.65 93.25 224.49 91.45 C 225.75 90.02 227.08 88.64 228.12 87.03 C 225.30 82.91 219.95 82.28 215.83 80.02 C 218.28 80.47 220.65 81.25 223.04 81.96 C 222.82 78.44 218.97 77.66 217.60 74.82 C 216.75 75.84 215.91 76.88 215.27 78.05 C 215.05 77.74 214.61 77.13 214.38 76.82 C 214.08 77.08 213.46 77.60 213.15 77.86 C 213.41 77.06 213.73 76.29 214.12 75.55 C 215.44 75.38 216.49 74.63 217.47 73.79 Z" />
<path fill="#0553dd" opacity="1.00" d=" M 212.10 83.22 C 212.12 81.92 212.18 80.61 212.49 79.34 C 212.71 79.73 213.14 80.50 213.36 80.89 C 213.48 80.34 213.72 79.26 213.84 78.71 L 215.16 78.29 C 214.66 79.55 214.15 80.79 213.63 82.04 C 213.25 82.33 212.49 82.92 212.10 83.22 Z" />
<path fill="#0553dd" opacity="1.00" d=" M 75.36 90.70 C 77.14 98.08 74.70 106.15 76.57 113.60 C 81.60 110.25 86.25 106.32 91.54 103.37 C 87.34 108.29 80.80 110.73 76.24 115.29 C 75.55 118.11 76.02 121.09 75.92 123.97 C 76.10 129.29 75.51 134.66 76.49 139.93 C 81.61 136.27 86.72 132.61 91.90 129.05 C 91.78 130.97 89.62 131.53 88.38 132.61 C 84.36 135.58 79.99 138.11 76.25 141.43 C 75.59 143.93 76.04 146.59 75.69 149.14 C 74.60 146.59 75.62 143.72 75.15 141.05 C 71.33 137.40 66.91 134.41 63.17 130.69 L 62.93 129.73 C 67.28 132.71 70.83 136.70 75.26 139.55 C 75.36 131.35 75.09 123.15 75.33 114.95 C 71.43 111.34 67.12 108.21 63.22 104.61 L 62.96 103.56 C 67.29 106.49 70.81 110.45 75.21 113.28 C 75.35 105.75 75.12 98.22 75.36 90.70 Z" />
<path fill="#0553dd" opacity="1.00" d=" M 163.92 93.15 C 164.20 93.14 164.75 93.13 165.03 93.13 C 166.75 93.72 168.46 94.37 170.15 95.03 C 169.34 95.93 168.53 96.83 167.72 97.73 C 166.00 96.61 164.67 95.07 163.92 93.15 Z" />
<path fill="#0553dd" opacity="1.00" d=" M 216.15 164.08 C 220.10 155.98 223.66 147.50 229.22 140.35 C 228.83 149.72 226.61 159.16 228.50 168.52 C 229.74 178.14 233.98 187.60 232.48 197.41 C 232.26 198.69 232.04 199.97 231.83 201.25 C 230.48 201.26 229.14 201.27 227.80 201.27 C 227.18 201.28 225.95 201.29 225.33 201.29 C 223.12 201.27 220.92 201.25 218.72 201.25 C 217.48 188.89 217.07 176.46 216.15 164.08 Z" />
<path fill="#0553dd" opacity="1.00" d=" M 84.44 158.82 C 85.54 164.35 84.71 170.09 84.83 175.71 C 88.91 173.95 92.23 170.72 95.94 168.27 C 95.70 169.12 95.23 169.80 94.52 170.30 C 91.35 172.54 87.99 174.55 85.09 177.14 C 84.72 183.03 85.05 188.96 84.90 194.87 C 88.97 193.11 91.83 189.29 96.11 187.99 C 92.63 190.99 88.49 193.13 85.05 196.15 C 84.81 198.72 84.94 201.30 84.94 203.88 L 84.07 203.91 C 84.12 201.26 84.35 198.59 84.03 195.95 C 81.24 192.99 77.55 190.99 74.96 187.82 C 78.45 189.45 80.72 192.77 84.08 194.61 C 84.11 188.75 84.35 182.87 84.03 177.02 C 81.33 173.99 77.71 171.92 74.91 168.97 C 78.55 170.27 80.77 173.74 84.04 175.69 C 84.39 170.07 83.80 164.42 84.44 158.82 Z" />
<path fill="#0553dd" opacity="1.00" d=" M 219.39 207.53 C 222.88 209.16 225.74 206.10 228.81 205.07 C 228.53 206.36 228.22 207.65 227.90 208.93 C 224.03 210.05 219.96 209.96 215.98 210.03 C 214.14 210.25 212.58 209.27 211.06 208.44 C 212.95 206.21 216.83 206.92 219.39 207.53 Z" />
<path fill="#0553dd" opacity="1.00" d=" M 183.42 210.65 C 186.40 212.13 189.61 210.55 192.22 209.03 C 192.21 210.60 192.19 213.14 190.04 213.22 C 185.67 213.17 181.20 213.15 176.99 211.85 C 175.90 211.53 175.18 210.80 174.82 209.68 C 177.70 209.51 180.79 209.17 183.42 210.65 Z" />
</g>
<g id="#e6e4edff">
<path fill="#e6e4ed" opacity="1.00" d=" M 215.27 78.05 C 215.91 76.88 216.75 75.84 217.60 74.82 C 218.97 77.66 222.82 78.44 223.04 81.96 C 220.65 81.25 218.28 80.47 215.83 80.02 C 219.95 82.28 225.30 82.91 228.12 87.03 C 227.08 88.64 225.75 90.02 224.49 91.45 C 224.65 93.25 225.23 95.01 225.09 96.83 C 223.25 96.84 221.40 96.84 219.56 96.84 C 219.63 96.39 219.76 95.48 219.82 95.03 C 219.88 94.56 219.99 93.64 220.05 93.18 C 216.08 90.96 212.79 86.85 213.63 82.04 C 214.15 80.79 214.66 79.55 215.16 78.29 L 215.27 78.05 Z" />
<path fill="#e6e4ed" opacity="1.00" d=" M 166.74 85.97 C 166.63 84.04 166.47 81.99 167.75 80.37 C 169.22 84.59 169.77 89.12 171.98 93.06 C 171.36 93.71 170.75 94.37 170.15 95.03 C 168.46 94.37 166.75 93.72 165.03 93.13 C 163.57 91.69 162.71 89.81 161.83 87.99 C 162.43 87.45 163.03 86.91 163.63 86.36 C 164.41 86.26 165.96 86.07 166.74 85.97 Z" />
<path fill="#e6e4ed" opacity="1.00" d=" M 141.21 182.05 C 145.49 179.00 151.16 183.24 151.05 188.01 C 151.29 192.11 147.35 196.50 143.04 195.14 C 137.70 193.27 136.66 185.36 141.21 182.05 Z" />
<path fill="#e6e4ed" opacity="1.00" d=" M 225.33 201.29 C 225.95 201.29 227.18 201.28 227.80 201.27 C 227.79 201.68 227.78 202.49 227.77 202.90 C 237.54 203.93 247.52 204.23 256.95 207.24 C 258.69 207.99 261.42 208.61 261.10 211.06 C 257.57 214.24 252.52 214.55 248.10 215.59 C 239.33 216.95 230.47 217.63 221.61 218.00 L 200.47 218.00 C 189.62 217.55 178.70 216.91 168.07 214.56 C 165.41 213.87 162.57 213.25 160.42 211.42 C 158.98 209.32 161.93 208.19 163.43 207.54 C 171.14 204.91 179.35 204.04 187.45 203.66 C 191.06 204.36 194.67 205.05 198.29 205.67 C 199.00 204.72 199.71 203.76 200.40 202.79 C 208.46 202.55 216.53 202.75 224.59 202.82 C 224.77 202.44 225.14 201.67 225.33 201.29 M 219.39 207.53 C 216.83 206.92 212.95 206.21 211.06 208.44 C 212.58 209.27 214.14 210.25 215.98 210.03 C 219.96 209.96 224.03 210.05 227.90 208.93 C 228.22 207.65 228.53 206.36 228.81 205.07 C 225.74 206.10 222.88 209.16 219.39 207.53 M 183.42 210.65 C 180.79 209.17 177.70 209.51 174.82 209.68 C 175.18 210.80 175.90 211.53 176.99 211.85 C 181.20 213.15 185.67 213.17 190.04 213.22 C 192.19 213.14 192.21 210.60 192.22 209.03 C 189.61 210.55 186.40 212.13 183.42 210.65 Z" />
</g>
</svg>
